<?xml version="1.0" standalone="no"?>
<!DOCTYPE svg PUBLIC "-//W3C//DTD SVG 20010904//EN"
 "http://www.w3.org/TR/2001/REC-SVG-20010904/DTD/svg10.dtd">
<svg version="1.0" xmlns="http://www.w3.org/2000/svg"
 width="570.000000pt" height="395.000000pt" viewBox="0 0 570.000000 395.000000"
 preserveAspectRatio="xMidYMid meet">

<g transform="translate(0.000000,395.000000) scale(0.100000,-0.100000)"
fill="#000000" stroke="none">
<path d="M3320 2912 c-14 -2 -31 -9 -39 -15 -8 -7 -45 -12 -82 -12 -37 0 -71
-4 -76 -9 -10 -10 25 -36 50 -36 24 0 98 -52 93 -65 -2 -5 -13 -9 -25 -8 -11
2 -21 -3 -21 -10 0 -6 -10 4 -22 23 -11 19 -23 30 -25 23 -3 -8 -13 -9 -36 -2
-40 11 -37 12 -37 -5 0 -8 10 -22 22 -30 l22 -16 -26 0 c-30 0 -80 20 -123 50
-16 11 -41 20 -54 20 -23 0 -23 -2 -17 -50 l7 -50 -31 0 c-25 0 -30 -4 -30
-23 0 -32 -25 -30 -54 4 -16 18 -27 24 -37 19 -7 -5 -16 -7 -20 -4 -11 6 -21
-26 -25 -86 -4 -59 -21 -81 -54 -73 -11 3 -20 1 -20 -5 0 -19 -31 -6 -48 20
-14 21 -21 24 -35 17 -20 -12 -21 -6 -6 24 l12 22 -24 -20 c-33 -28 -50 -52
-76 -107 -24 -52 -38 -60 -46 -28 -6 24 -47 28 -47 4 0 -9 -6 -14 -12 -11 -7
2 -12 14 -11 26 7 60 -86 -12 -122 -96 -26 -58 -55 -88 -63 -64 -2 6 -15 11
-28 11 -16 0 -28 8 -35 24 -11 23 -13 24 -54 11 -24 -7 -58 -23 -75 -35 -29
-21 -32 -27 -26 -60 l6 -38 -41 5 c-39 6 -41 5 -34 -16 11 -35 -24 -23 -51 16
-12 18 -24 29 -28 26 -3 -4 -12 1 -19 11 -12 16 -17 15 -72 -17 -123 -69 -125
-73 -73 -124 61 -59 118 -66 256 -33 46 11 94 20 106 20 13 0 30 9 37 19 10
14 51 29 139 51 69 18 137 32 151 31 18 0 45 16 84 50 69 60 94 73 169 89 80
16 135 41 199 89 64 49 159 94 188 89 16 -2 35 -28 69 -93 67 -128 81 -149
150 -226 50 -56 68 -69 92 -69 29 0 29 0 -30 58 -57 56 -152 164 -152 174 0 3
-23 43 -50 89 -46 77 -49 85 -33 97 9 6 23 12 31 12 12 0 200 99 227 120 34
26 53 20 122 -38 131 -112 265 -186 398 -217 86 -21 240 -22 315 -2 l54 15 33
-36 c18 -20 33 -40 33 -44 0 -4 11 -8 24 -8 14 0 28 -4 31 -10 3 -5 14 -10 23
-10 11 1 6 7 -13 17 -40 21 -115 82 -115 94 0 5 7 9 17 9 42 0 123 83 189 195
26 44 61 95 78 113 22 24 27 35 19 43 -15 15 -59 4 -81 -21 -30 -33 -37 -44
-72 -113 -47 -91 -121 -167 -185 -189 -105 -37 -248 -27 -389 26 -149 56 -306
167 -306 216 0 19 -87 147 -103 152 -7 2 -23 2 -37 0z m-20 -42 c0 -5 -4 -10
-9 -10 -6 0 -13 5 -16 10 -3 6 1 10 9 10 9 0 16 -4 16 -10z m-45 -130 c-28
-12 -37 -12 -30 0 3 6 16 10 28 9 21 0 21 -1 2 -9z m-605 -253 c0 -4 -9 -3
-20 3 -11 6 -20 17 -20 25 0 12 4 12 20 -2 11 -10 20 -21 20 -26z m-520 -162
c0 -7 8 -18 17 -24 25 -14 9 -25 -16 -11 -21 11 -30 50 -11 50 6 0 10 -7 10
-15z m193 -5 c6 -23 -10 -26 -35 -6 -20 14 -14 26 13 26 9 0 19 -9 22 -20z
m37 -34 c0 -5 -103 -36 -117 -35 -4 0 12 8 37 19 43 17 80 25 80 16z m-610
-136 c0 -5 -2 -10 -4 -10 -3 0 -8 5 -11 10 -3 6 -1 10 4 10 6 0 11 -4 11 -10z"/>
<path d="M2562 2665 l-23 -12 23 -7 c42 -11 58 -7 58 14 0 23 -22 25 -58 5z"/>
<path d="M2508 2643 c7 -3 16 -2 19 1 4 3 -2 6 -13 5 -11 0 -14 -3 -6 -6z"/>
<path d="M2383 2593 c-7 -2 -13 -9 -13 -14 0 -14 26 -10 40 6 10 12 10 15 -1
14 -8 0 -20 -3 -26 -6z"/>
<path d="M2130 2470 c-23 -7 -23 -8 -3 -9 12 -1 25 4 28 9 3 6 5 10 3 9 -2 -1
-14 -5 -28 -9z"/>
<path d="M4355 2400 c-3 -5 -1 -10 4 -10 6 0 11 5 11 10 0 6 -2 10 -4 10 -3 0
-8 -4 -11 -10z"/>
<path d="M4390 2400 c0 -5 5 -10 11 -10 5 0 7 5 4 10 -3 6 -8 10 -11 10 -2 0
-4 -4 -4 -10z"/>
<path d="M4358 2363 c6 -2 18 -2 25 0 6 3 1 5 -13 5 -14 0 -19 -2 -12 -5z"/>
<path d="M4415 2324 c-41 -25 -40 -26 37 -10 19 5 35 -1 58 -21 35 -29 79 -93
91 -133 l7 -25 1 25 c2 51 -104 192 -141 189 -7 0 -31 -12 -53 -25z"/>
<path d="M2620 2090 c0 -30 46 -124 81 -164 45 -51 107 -76 192 -76 58 0 150
25 167 45 7 8 19 15 28 15 8 0 13 3 10 6 -3 3 -73 6 -154 8 -135 2 -154 4
-199 27 -43 21 -54 33 -80 86 -28 57 -45 78 -45 53z"/>
<path d="M1460 2069 c0 -5 5 -7 10 -4 6 3 10 8 10 11 0 2 -4 4 -10 4 -5 0 -10
-5 -10 -11z"/>
<path d="M1660 2070 c0 -5 5 -10 10 -10 6 0 10 5 10 10 0 6 -4 10 -10 10 -5 0
-10 -4 -10 -10z"/>
<path d="M1830 2060 c0 -5 5 -10 10 -10 6 0 10 5 10 10 0 6 -4 10 -10 10 -5 0
-10 -4 -10 -10z"/>
<path d="M3635 2060 c-3 -6 1 -7 9 -4 18 7 21 14 7 14 -6 0 -13 -4 -16 -10z"/>
<path d="M3590 2050 c-12 -8 -11 -10 8 -10 12 0 22 5 22 10 0 13 -11 13 -30 0z"/>
<path d="M3510 2025 c-21 -8 -27 -14 -16 -14 12 -1 16 -6 12 -16 -7 -18 -4
-18 29 -3 31 14 33 31 3 24 -15 -4 -12 -1 7 9 38 18 12 18 -35 0z"/>
<path d="M1590 2020 c0 -5 5 -10 10 -10 6 0 10 5 10 10 0 6 -4 10 -10 10 -5 0
-10 -4 -10 -10z"/>
<path d="M1340 2010 c0 -5 5 -10 10 -10 6 0 10 5 10 10 0 6 -4 10 -10 10 -5 0
-10 -4 -10 -10z"/>
<path d="M3455 1988 c4 -13 13 -34 21 -48 7 -14 27 -52 43 -85 45 -90 37 -47
-9 51 -22 47 -40 89 -40 95 0 5 -5 9 -11 9 -6 0 -8 -9 -4 -22z"/>
<path d="M1765 1990 c4 -6 11 -8 16 -5 14 9 11 15 -7 15 -8 0 -12 -5 -9 -10z"/>
<path d="M1500 1959 c0 -5 5 -7 10 -4 6 3 10 8 10 11 0 2 -4 4 -10 4 -5 0 -10
-5 -10 -11z"/>
<path d="M3128 1923 c7 -3 16 -2 19 1 4 3 -2 6 -13 5 -11 0 -14 -3 -6 -6z"/>
<path d="M3417 1874 c-8 -8 1 -24 14 -24 5 0 9 7 9 15 0 15 -12 20 -23 9z"/>
<path d="M2840 1805 c0 -8 7 -15 15 -15 8 0 15 7 15 15 0 8 -7 15 -15 15 -8 0
-15 -7 -15 -15z"/>
<path d="M3033 1723 c9 -2 25 -2 35 0 9 3 1 5 -18 5 -19 0 -27 -2 -17 -5z"/>
<path d="M4320 1700 c-20 -6 -21 -8 -5 -8 11 0 34 4 50 8 27 7 27 8 5 8 -14 0
-36 -4 -50 -8z"/>
<path d="M3956 1693 c5 -5 70 -5 144 -2 l135 5 -144 2 c-80 1 -141 -1 -135 -5z"/>
<path d="M725 1680 c-3 -5 2 -10 12 -10 11 0 24 -5 30 -11 6 -6 17 -8 23 -4 8
5 1 12 -20 21 -39 17 -37 17 -45 4z"/>
<path d="M3375 1680 c-3 -5 1 -10 10 -10 9 0 13 5 10 10 -3 6 -8 10 -10 10 -2
0 -7 -4 -10 -10z"/>
<path d="M3550 1681 c0 -4 24 -6 53 -4 77 7 81 11 10 12 -35 1 -63 -3 -63 -8z"/>
<path d="M3728 1683 c6 -2 18 -2 25 0 6 3 1 5 -13 5 -14 0 -19 -2 -12 -5z"/>
<path d="M3185 1660 c-8 -13 25 -13 45 0 12 8 9 10 -12 10 -15 0 -30 -4 -33
-10z"/>
<path d="M815 1650 c3 -5 13 -10 21 -10 8 0 14 5 14 10 0 6 -9 10 -21 10 -11
0 -17 -4 -14 -10z"/>
<path d="M3025 1640 c-3 -5 1 -10 9 -10 8 0 18 5 21 10 3 6 -1 10 -9 10 -8 0
-18 -4 -21 -10z"/>
<path d="M1038 1613 c6 -2 18 -2 25 0 6 3 1 5 -13 5 -14 0 -19 -2 -12 -5z"/>
<path d="M1178 1593 c7 -3 16 -2 19 1 4 3 -2 6 -13 5 -11 0 -14 -3 -6 -6z"/>
<path d="M2688 1593 c7 -3 16 -2 19 1 4 3 -2 6 -13 5 -11 0 -14 -3 -6 -6z"/>
<path d="M1308 1583 c7 -3 16 -2 19 1 4 3 -2 6 -13 5 -11 0 -14 -3 -6 -6z"/>
<path d="M1460 1576 c0 -9 30 -14 35 -6 4 6 -3 10 -14 10 -12 0 -21 -2 -21 -4z"/>
<path d="M2538 1573 c7 -3 16 -2 19 1 4 3 -2 6 -13 5 -11 0 -14 -3 -6 -6z"/>
<path d="M1653 1559 c14 -8 22 -8 30 0 8 8 3 11 -18 11 -26 -1 -28 -2 -12 -11z"/>
<path d="M2368 1563 c7 -3 16 -2 19 1 4 3 -2 6 -13 5 -11 0 -14 -3 -6 -6z"/>
<path d="M4160 1513 c-6 -32 -14 -65 -16 -75 -3 -9 0 -19 5 -23 6 -3 13 4 16
17 28 124 29 138 16 138 -5 0 -15 -26 -21 -57z"/>
<path d="M4200 1513 c-6 -32 -14 -66 -16 -75 -9 -29 14 -20 24 10 l10 27 11
-27 c6 -16 15 -28 21 -28 13 0 13 6 -1 31 -8 16 -7 25 5 38 22 24 20 58 -3 71
-33 17 -39 12 -51 -47z m47 3 c-4 -9 -11 -16 -17 -16 -11 0 -14 33 -3 44 11
10 26 -11 20 -28z"/>
<path d="M1848 1553 c6 -2 18 -2 25 0 6 3 1 5 -13 5 -14 0 -19 -2 -12 -5z"/>
<path d="M2038 1553 c7 -3 16 -2 19 1 4 3 -2 6 -13 5 -11 0 -14 -3 -6 -6z"/>
<path d="M2188 1553 c6 -2 18 -2 25 0 6 3 1 5 -13 5 -14 0 -19 -2 -12 -5z"/>
<path d="M4083 1543 c-3 -10 -17 -42 -30 -72 -13 -30 -20 -57 -17 -60 4 -3 9
0 11 7 6 14 39 16 48 2 13 -21 25 -8 25 28 0 87 -21 140 -37 95z m17 -68 c0
-8 -4 -15 -10 -15 -5 0 -10 7 -10 15 0 8 5 15 10 15 6 0 10 -7 10 -15z"/>
<path d="M4415 1478 c-96 -8 -139 -19 -124 -31 8 -8 334 25 344 34 11 11 -65
10 -220 -3z"/>
<path d="M3670 1438 c0 -10 38 -12 162 -10 224 4 231 22 10 22 -131 0 -172 -3
-172 -12z"/>
<path d="M3618 1313 c7 -3 16 -2 19 1 4 3 -2 6 -13 5 -11 0 -14 -3 -6 -6z"/>
<path d="M4356 1307 c-5 -10 -6 -30 -3 -46 3 -15 1 -33 -6 -40 -8 -8 -8 -11 1
-11 18 0 24 21 20 71 -3 33 -6 39 -12 26z"/>
<path d="M4232 1270 c0 -19 2 -27 5 -17 2 9 2 25 0 35 -3 9 -5 1 -5 -18z"/>
<path d="M4292 1275 c0 -16 2 -22 5 -12 2 9 2 23 0 30 -3 6 -5 -1 -5 -18z"/>
<path d="M3008 1284 c-11 -17 -7 -97 4 -86 5 5 8 29 6 53 -2 24 -6 39 -10 33z"/>
<path d="M3070 1260 c0 -16 5 -30 10 -30 6 0 10 14 10 30 0 17 -4 30 -10 30
-5 0 -10 -13 -10 -30z"/>
<path d="M3138 1243 c-4 -46 -2 -62 6 -52 8 10 15 99 7 99 -5 0 -11 -21 -13
-47z"/>
<path d="M3210 1256 c0 -19 -3 -41 -6 -50 -3 -9 -2 -16 4 -16 6 0 12 23 14 50
1 28 0 50 -4 50 -5 0 -8 -15 -8 -34z"/>
<path d="M3273 1241 c1 -27 5 -47 10 -44 11 6 9 93 -3 93 -5 0 -8 -22 -7 -49z"/>
<path d="M3340 1239 c0 -31 4 -48 10 -44 6 3 10 26 10 51 0 24 -4 44 -10 44
-5 0 -10 -23 -10 -51z"/>
<path d="M3413 1250 c3 -23 1 -40 -5 -40 -5 0 -6 -4 -3 -10 14 -23 25 -7 25
40 0 31 -4 50 -11 50 -8 0 -10 -14 -6 -40z"/>
<path d="M3477 1283 c-9 -15 -2 -88 8 -88 5 0 11 21 13 48 3 41 -8 62 -21 40z"/>
<path d="M3542 1243 c2 -27 8 -48 13 -48 6 0 11 21 13 48 3 38 0 47 -13 47
-13 0 -16 -9 -13 -47z"/>
<path d="M3617 1263 c-9 -51 -6 -73 9 -73 10 0 14 12 14 44 0 51 -16 70 -23
29z"/>
<path d="M3680 1268 c0 -32 11 -68 20 -68 4 0 6 10 5 23 -1 12 -3 32 -4 45 0
12 -5 22 -11 22 -5 0 -10 -10 -10 -22z"/>
<path d="M3757 1283 c-10 -10 -8 -56 3 -73 7 -11 10 -2 10 33 0 48 -1 52 -13
40z"/>
<path d="M3820 1255 c0 -19 5 -35 10 -35 6 0 10 16 10 35 0 19 -4 35 -10 35
-5 0 -10 -16 -10 -35z"/>
<path d="M3890 1255 c0 -19 5 -35 10 -35 6 0 10 16 10 35 0 19 -4 35 -10 35
-5 0 -10 -16 -10 -35z"/>
<path d="M3961 1245 c2 -25 6 -45 11 -45 4 0 8 20 8 45 0 25 -5 45 -10 45 -7
0 -10 -19 -9 -45z"/>
<path d="M4030 1243 c0 -35 3 -44 10 -33 13 20 13 80 0 80 -5 0 -10 -21 -10
-47z"/>
<path d="M4103 1255 c0 -22 2 -30 4 -17 2 12 2 30 0 40 -3 9 -5 -1 -4 -23z"/>
<path d="M4160 1271 c0 -11 5 -23 10 -26 6 -4 10 5 10 19 0 14 -4 26 -10 26
-5 0 -10 -9 -10 -19z"/>
<path d="M2869 1268 c0 -7 -2 -28 -3 -45 -2 -18 0 -33 5 -33 5 0 9 8 10 18 0
9 2 29 4 45 2 15 -1 27 -6 27 -5 0 -9 -6 -10 -12z"/>
<path d="M2932 1235 c0 -24 5 -42 10 -39 12 7 10 84 -2 84 -6 0 -9 -20 -8 -45z"/>
<path d="M3065 1200 c4 -6 11 -8 16 -5 14 9 11 15 -7 15 -8 0 -12 -5 -9 -10z"/>
</g>
</svg>
