<?xml version="1.0" standalone="no"?>
<!DOCTYPE svg PUBLIC "-//W3C//DTD SVG 20010904//EN"
 "http://www.w3.org/TR/2001/REC-SVG-20010904/DTD/svg10.dtd">
<svg version="1.0" xmlns="http://www.w3.org/2000/svg"
 width="570.000000pt" height="395.000000pt" viewBox="0 0 570.000000 395.000000"
 preserveAspectRatio="xMidYMid meet">

<g transform="translate(0.000000,395.000000) scale(0.100000,-0.100000)"
fill="#000000" stroke="none">
<path d="M3585 2950 c-3 -5 1 -10 9 -10 9 0 16 5 16 10 0 6 -4 10 -9 10 -6 0
-13 -4 -16 -10z"/>
<path d="M3530 2943 c0 -4 -23 -19 -50 -32 -27 -14 -48 -27 -45 -29 6 -6 115
40 115 49 0 11 -20 22 -20 12z"/>
<path d="M3625 2800 c9 -16 18 -30 21 -30 2 0 -2 14 -11 30 -9 17 -18 30 -21
30 -2 0 2 -13 11 -30z"/>
<path d="M3262 2768 c7 -19 38 -22 38 -4 0 10 -9 16 -21 16 -12 0 -19 -5 -17
-12z"/>
<path d="M3174 2736 c15 -9 40 -16 55 -15 26 1 26 1 -4 9 -85 23 -83 23 -51 6z"/>
<path d="M3725 2730 c3 -5 11 -10 16 -10 6 0 7 5 4 10 -3 6 -11 10 -16 10 -6
0 -7 -4 -4 -10z"/>
<path d="M4761 2709 c-6 -18 -9 -34 -7 -36 2 -2 9 10 15 28 6 18 9 34 7 36 -2
2 -9 -10 -15 -28z"/>
<path d="M3394 2685 c-37 -20 -91 -52 -118 -73 -80 -59 -95 -67 -186 -97 -49
-16 -124 -52 -178 -86 -98 -61 -134 -76 -246 -103 -55 -13 -85 -28 -145 -73
-88 -66 -103 -72 -276 -108 -71 -15 -150 -35 -175 -45 -25 -11 -97 -33 -160
-50 -91 -25 -127 -31 -174 -27 -38 4 -54 2 -45 -4 28 -17 126 -9 254 23 72 18
132 35 135 39 10 14 58 28 147 44 136 23 146 26 157 33 6 3 19 5 29 4 10 -2
39 14 65 36 89 75 139 100 210 108 67 7 116 30 257 124 74 48 169 80 243 80
37 0 44 -3 53 -27 16 -43 80 -155 86 -150 2 3 -19 51 -47 107 -39 78 -48 105
-39 111 7 4 17 6 21 3 4 -3 27 14 50 36 24 23 77 62 118 86 91 54 63 61 -36 9z"/>
<path d="M3708 2653 c7 -3 16 -2 19 1 4 3 -2 6 -13 5 -11 0 -14 -3 -6 -6z"/>
<path d="M4730 2640 c-6 -12 -9 -24 -7 -27 3 -2 11 5 17 17 6 12 9 24 7 27 -3
2 -11 -5 -17 -17z"/>
<path d="M3077 2630 c6 -24 26 -21 31 3 2 11 -3 17 -16 17 -15 0 -19 -5 -15
-20z"/>
<path d="M2905 2569 c-4 -6 -4 -13 -1 -16 8 -8 36 5 36 17 0 13 -27 13 -35 -1z"/>
<path d="M2660 2497 c0 -17 20 -45 37 -51 16 -5 16 -5 2 6 -8 7 -21 22 -27 33
-6 11 -12 16 -12 12z"/>
<path d="M2731 2457 c-11 -27 -8 -31 18 -22 25 7 28 30 6 39 -10 4 -19 -2 -24
-17z"/>
<path d="M4965 2430 c3 -5 8 -10 11 -10 2 0 4 5 4 10 0 6 -5 10 -11 10 -5 0
-7 -4 -4 -10z"/>
<path d="M2528 2413 c-18 -5 -23 -15 -12 -26 9 -8 44 11 44 23 0 10 -3 11 -32
3z"/>
<path d="M4530 2400 c-13 -8 -12 -10 3 -10 9 0 17 5 17 10 0 12 -1 12 -20 0z"/>
<path d="M4610 2340 c23 -20 42 -29 55 -26 11 3 31 -1 44 -8 13 -7 32 -11 41
-9 9 3 34 -3 55 -11 40 -17 86 -22 70 -8 -14 12 -94 34 -135 37 -49 4 -106 20
-138 40 -21 12 -19 9 8 -15z"/>
<path d="M4188 2313 c6 -2 18 -2 25 0 6 3 1 5 -13 5 -14 0 -19 -2 -12 -5z"/>
<path d="M2356 2274 c-4 -11 -1 -14 11 -12 9 2 18 9 21 16 6 18 -25 15 -32 -4z"/>
<path d="M3358 2263 c7 -3 16 -2 19 1 4 3 -2 6 -13 5 -11 0 -14 -3 -6 -6z"/>
<path d="M2150 2234 c0 -9 5 -14 12 -12 18 6 21 28 4 28 -9 0 -16 -7 -16 -16z"/>
<path d="M4815 2230 c-19 -8 -19 -9 2 -9 12 -1 25 4 28 9 7 12 -2 12 -30 0z"/>
<path d="M1837 2164 c-6 -6 35 -44 48 -44 7 0 -28 49 -36 50 -3 0 -9 -3 -12
-6z"/>
<path d="M1947 2143 c-4 -3 -7 -12 -7 -20 0 -11 4 -11 20 -3 11 6 18 15 15 21
-7 11 -19 12 -28 2z"/>
<path d="M3483 2085 c0 -11 12 -15 39 -15 21 0 38 5 38 10 0 6 -3 11 -7 11
-57 9 -70 7 -70 -6z"/>
<path d="M5001 2074 c0 -11 3 -14 6 -6 3 7 2 16 -1 19 -3 4 -6 -2 -5 -13z"/>
<path d="M3590 2040 c0 -5 5 -10 10 -10 6 0 10 5 10 10 0 6 -4 10 -10 10 -5 0
-10 -4 -10 -10z"/>
<path d="M3765 1880 c3 -5 8 -10 11 -10 2 0 4 5 4 10 0 6 -5 10 -11 10 -5 0
-7 -4 -4 -10z"/>
<path d="M3630 1690 c0 -5 4 -10 9 -10 6 0 13 5 16 10 3 6 -1 10 -9 10 -9 0
-16 -4 -16 -10z"/>
<path d="M2980 1640 c0 -5 4 -10 9 -10 6 0 13 5 16 10 3 6 -1 10 -9 10 -9 0
-16 -4 -16 -10z"/>
<path d="M4728 1513 c7 -3 16 -2 19 1 4 3 -2 6 -13 5 -11 0 -14 -3 -6 -6z"/>
<path d="M4448 1503 c6 -2 18 -2 25 0 6 3 1 5 -13 5 -14 0 -19 -2 -12 -5z"/>
<path d="M4293 1493 c9 -2 23 -2 30 0 6 3 -1 5 -18 5 -16 0 -22 -2 -12 -5z"/>
<path d="M4148 1483 c7 -3 16 -2 19 1 4 3 -2 6 -13 5 -11 0 -14 -3 -6 -6z"/>
<path d="M2465 1330 c-3 -5 -2 -10 4 -10 5 0 13 5 16 10 3 6 2 10 -4 10 -5 0
-13 -4 -16 -10z"/>
<path d="M2198 1313 c7 -3 16 -2 19 1 4 3 -2 6 -13 5 -11 0 -14 -3 -6 -6z"/>
<path d="M1306 961 c-3 -5 1 -11 9 -15 15 -6 29 7 18 18 -9 9 -21 8 -27 -3z"/>
<path d="M1370 951 l-25 -7 25 -5 c30 -6 50 -1 50 12 0 10 -14 10 -50 0z"/>
<path d="M1455 940 c-15 -6 -9 -9 25 -9 34 0 40 3 25 9 -11 5 -22 9 -25 9 -3
0 -14 -4 -25 -9z"/>
<path d="M1541 936 c-9 -11 -2 -15 36 -22 27 -4 728 -8 1558 -8 1171 -1 1514
2 1530 11 20 12 20 12 -2 13 -12 0 -24 6 -26 13 -4 9 -7 9 -14 0 -6 -9 -31
-12 -78 -9 -39 1 -78 -2 -88 -8 -13 -8 -20 -8 -27 4 -7 12 -12 12 -35 0 -21
-11 -30 -12 -46 -1 -13 7 -25 9 -32 3 -11 -8 -587 -10 -612 -2 -5 2 -18 0 -29
-5 -11 -5 -26 -3 -37 4 -15 8 -24 8 -39 -1 -15 -9 -25 -10 -37 -2 -12 8 -25 8
-46 0 -22 -8 -30 -8 -37 4 -7 12 -13 12 -34 1 -15 -8 -32 -10 -43 -6 -10 5
-22 7 -28 5 -5 -2 -208 -4 -450 -5 -243 -1 -446 -4 -452 -8 -6 -4 -14 -4 -17
1 -6 10 -104 8 -129 -3 -9 -4 -23 -3 -30 2 -6 5 -115 8 -242 8 -126 -1 -235 2
-242 7 -7 6 -19 4 -32 -4 -17 -10 -25 -10 -42 0 -14 9 -25 10 -31 4 -6 -6 -22
-7 -40 -1 -16 4 -42 6 -58 3 -15 -4 -31 -1 -34 5 -10 15 -21 14 -35 -3z"/>
</g>
</svg>
