<?xml version="1.0" standalone="no"?>
<!DOCTYPE svg PUBLIC "-//W3C//DTD SVG 20010904//EN"
 "http://www.w3.org/TR/2001/REC-SVG-20010904/DTD/svg10.dtd">
<svg version="1.0" xmlns="http://www.w3.org/2000/svg"
 width="600.000000pt" height="416.000000pt" viewBox="0 0 600.000000 416.000000"
 preserveAspectRatio="xMidYMid meet">

<g transform="translate(0.000000,416.000000) scale(0.100000,-0.100000)"
fill="#000000" stroke="none">
<path d="M3545 2964 c-43 -16 -114 -69 -104 -78 3 -3 35 10 72 30 59 31 76 35
146 37 97 2 92 20 -7 24 -41 1 -82 -3 -107 -13z"/>
<path d="M3600 2888 c0 -8 137 -148 144 -148 4 0 4 5 0 12 -4 7 -3 8 4 4 15
-9 0 -40 -26 -55 -22 -13 -7 -14 17 -2 14 8 30 -2 78 -45 34 -30 64 -54 68
-54 7 0 95 -60 105 -71 3 -3 43 -24 90 -46 169 -81 293 -112 442 -113 75 0
166 17 188 36 8 7 27 17 41 23 48 18 138 81 162 113 14 18 46 75 71 127 26 52
56 106 66 121 11 16 20 34 20 42 -1 8 -4 7 -11 -5 -6 -9 -14 -15 -20 -12 -5 4
-9 1 -9 -5 0 -6 -4 -9 -9 -6 -5 3 -15 -2 -22 -11 -12 -15 -12 -16 4 -10 13 5
17 3 14 -5 -2 -7 -13 -12 -23 -10 -14 2 -16 1 -6 -6 11 -8 10 -18 -8 -53 -13
-24 -28 -47 -34 -51 -6 -4 -7 -8 -2 -8 4 0 -2 -9 -15 -20 -13 -10 -19 -19 -12
-20 6 0 14 6 16 13 4 9 6 9 6 -1 1 -7 -5 -20 -11 -27 -31 -34 -36 -43 -30 -49
3 -4 -2 -4 -13 0 -15 6 -17 4 -12 -11 7 -16 5 -16 -10 -4 -15 12 -16 12 -10
-3 6 -17 -18 -46 -30 -34 -3 3 -13 -3 -20 -14 -8 -11 -19 -18 -24 -15 -5 4 -9
0 -9 -7 -1 -8 -7 -5 -16 7 -13 16 -15 17 -12 3 2 -9 -1 -17 -6 -16 -5 0 -13
-6 -17 -14 -7 -10 -12 -11 -28 -1 -17 11 -19 10 -15 -2 4 -8 11 -15 18 -16 9
0 -70 -28 -82 -29 -2 0 0 6 4 13 6 8 3 8 -9 -1 -9 -8 -21 -11 -27 -7 -5 3 -10
2 -10 -2 0 -12 -74 -11 -82 1 -5 8 -8 7 -8 -1 0 -20 -20 -15 -21 5 0 10 -3 12
-6 5 -7 -19 -23 -16 -23 5 0 10 -3 13 -8 6 -4 -6 -15 -11 -24 -11 -15 0 -16 3
-5 16 10 13 7 12 -15 -2 -24 -15 -28 -15 -28 -2 0 8 5 15 12 15 6 0 9 3 5 6
-3 3 -16 -1 -29 -10 -30 -21 -49 -21 -41 2 5 14 4 15 -8 6 -8 -7 -22 -8 -34
-3 -15 6 -16 8 -4 8 9 1 19 7 22 15 5 12 2 12 -21 0 -32 -16 -62 -18 -62 -4 0
6 5 9 11 8 6 -2 14 3 16 9 3 10 -3 10 -27 1 -24 -8 -34 -8 -43 2 -8 9 -8 11
-1 7 7 -4 18 1 25 10 12 14 11 15 -11 8 -14 -4 -31 -10 -39 -13 -10 -4 -13 -1
-8 12 10 26 -1 38 -24 25 -25 -13 -38 -4 -19 14 10 9 11 9 6 0 -10 -17 -1 -16
13 1 9 11 7 13 -11 12 -29 -3 -60 12 -53 24 3 5 -3 9 -12 9 -60 3 -71 6 -66
19 4 10 8 11 13 2 5 -8 9 -8 13 2 3 10 -4 15 -24 16 -51 3 -58 5 -53 14 3 5 9
6 14 3 5 -3 11 -2 14 3 5 8 -8 12 -46 13 -10 0 -21 5 -24 11 -4 6 -3 8 3 5 6
-4 17 1 24 11 11 14 11 15 -1 5 -15 -14 -55 2 -45 18 4 5 10 7 15 4 5 -3 11
-1 14 3 3 5 -5 8 -17 7 -28 -2 -59 13 -52 25 3 5 -5 10 -17 12 -14 2 -23 9
-22 20 1 12 -5 15 -28 13 -25 -4 -28 -1 -23 15 3 10 0 22 -6 26 -8 5 -9 3 -4
-6 6 -9 4 -11 -4 -6 -7 5 -10 15 -7 23 4 11 2 13 -9 10 -8 -4 -20 -1 -27 6
-23 21 -48 40 -48 35z m430 -343 c0 -2 -5 -7 -12 -11 -7 -4 -8 -3 -4 4 7 11
-6 17 -27 13 -5 -1 -6 3 -2 9 6 9 45 -3 45 -15z m20 -15 c0 -5 -5 -10 -11 -10
-5 0 -7 5 -4 10 3 6 8 10 11 10 2 0 4 -4 4 -10z m54 -25 c-4 -8 -11 -15 -16
-15 -6 0 -5 6 2 15 7 8 14 15 16 15 2 0 1 -7 -2 -15z"/>
<path d="M3298 2777 c12 -14 10 -17 -13 -23 -14 -3 -24 -9 -21 -11 7 -8 76 17
76 28 0 5 -4 9 -9 9 -5 0 -18 3 -28 7 -16 6 -16 5 -5 -10z"/>
<path d="M3516 2735 c4 -8 10 -12 15 -9 11 6 2 24 -11 24 -5 0 -7 -7 -4 -15z"/>
<path d="M4965 2740 c3 -5 8 -10 11 -10 2 0 4 5 4 10 0 6 -5 10 -11 10 -5 0
-7 -4 -4 -10z"/>
<path d="M4950 2720 c0 -5 5 -10 11 -10 5 0 7 5 4 10 -3 6 -8 10 -11 10 -2 0
-4 -4 -4 -10z"/>
<path d="M4938 2693 c7 -3 16 -2 19 1 4 3 -2 6 -13 5 -11 0 -14 -3 -6 -6z"/>
<path d="M3730 2629 c0 -21 41 -81 60 -87 12 -4 12 -2 -1 14 -9 10 -26 35 -38
54 -11 19 -21 28 -21 19z"/>
<path d="M4881 2591 c-7 -5 -9 -11 -5 -14 5 -3 15 1 22 9 14 16 5 18 -17 5z"/>
<path d="M3433 2556 l-41 -22 46 -80 c65 -111 136 -209 140 -191 2 7 -34 69
-79 136 -45 67 -79 124 -76 127 3 3 13 -7 23 -23 57 -92 140 -213 147 -213 14
0 7 26 -18 63 -14 20 -22 37 -18 37 4 0 17 -14 28 -30 28 -42 38 -37 32 16 -5
50 -32 85 -78 105 -42 17 -46 5 -14 -36 15 -20 25 -39 22 -42 -3 -2 -14 8 -24
24 -17 27 -26 40 -48 66 -5 7 -11 21 -13 32 l-4 20 16 -20 c15 -19 15 -19 16
12 0 17 -3 34 -7 36 -5 3 -27 -5 -50 -17z"/>
<path d="M4816 2522 c-2 -4 4 -9 15 -9 11 -1 17 2 14 8 -7 11 -22 12 -29 1z"/>
<path d="M3870 2510 c0 -5 7 -10 16 -10 8 0 12 5 9 10 -3 6 -10 10 -16 10 -5
0 -9 -4 -9 -10z"/>
<path d="M4785 2490 c3 -5 8 -10 11 -10 2 0 4 5 4 10 0 6 -5 10 -11 10 -5 0
-7 -4 -4 -10z"/>
<path d="M2980 2460 c-13 -8 -12 -10 3 -10 9 0 17 5 17 10 0 12 -1 12 -20 0z"/>
<path d="M3191 2436 c-6 -8 -23 -17 -36 -20 -36 -9 -31 -23 5 -18 17 2 29 7
26 10 -3 3 2 11 12 18 9 7 14 15 11 18 -3 4 -11 0 -18 -8z"/>
<path d="M3913 2405 c-20 -14 -36 -59 -25 -70 3 -3 5 -25 3 -49 -3 -51 15 -70
63 -69 47 1 91 27 105 61 17 40 -6 95 -51 122 -39 24 -66 25 -95 5z m62 -155
c15 0 24 -4 20 -10 -13 -22 -85 -8 -85 16 0 11 4 12 19 4 11 -5 31 -10 46 -10z"/>
<path d="M3301 2401 c-7 -5 -11 -15 -9 -22 3 -10 8 -7 17 9 13 24 12 26 -8 13z"/>
<path d="M2160 2369 c0 -5 5 -7 10 -4 6 3 10 8 10 11 0 2 -4 4 -10 4 -5 0 -10
-5 -10 -11z"/>
<path d="M2695 2370 c-3 -5 1 -10 10 -10 9 0 13 5 10 10 -3 6 -8 10 -10 10 -2
0 -7 -4 -10 -10z"/>
<path d="M3029 2342 c-49 -22 -60 -33 -83 -77 -25 -49 -34 -104 -20 -118 10
-10 74 85 74 110 0 12 8 28 19 35 16 12 78 79 69 77 -1 -1 -28 -13 -59 -27z
m-56 -94 c-21 -43 -27 -49 -18 -18 7 23 23 50 30 50 2 0 -4 -15 -12 -32z"/>
<path d="M2095 2323 c-22 -19 -40 -40 -40 -47 0 -8 -11 -22 -24 -33 -23 -19
-22 -43 1 -43 6 0 8 3 5 7 -4 3 2 12 13 20 11 8 20 23 20 34 0 26 6 24 36 -8
27 -29 22 -11 -5 21 -15 17 -14 20 17 46 19 15 30 30 25 33 -4 3 -26 -11 -48
-30z"/>
<path d="M4840 2320 c0 -5 6 -10 14 -10 8 0 18 5 21 10 3 6 -3 10 -14 10 -12
0 -21 -4 -21 -10z"/>
<path d="M3764 2312 c-19 -12 -2 -93 24 -110 20 -13 22 -13 22 3 0 15 5 13 27
-9 27 -28 60 -40 89 -34 15 3 13 7 -10 36 -17 19 -37 32 -51 32 -36 0 -78 38
-72 66 4 24 -8 31 -29 16z"/>
<path d="M3040 2285 c0 -9 6 -12 15 -9 8 4 15 10 15 15 0 5 -7 9 -15 9 -8 0
-15 -7 -15 -15z"/>
<path d="M4210 2195 c-38 -39 -35 -50 8 -41 25 6 29 12 30 41 1 19 0 35 -1 35
-2 0 -18 -16 -37 -35z"/>
<path d="M5023 2220 c-12 -5 -27 -19 -34 -31 -10 -20 -13 -21 -24 -6 -10 14
-17 14 -48 5 -31 -9 -35 -14 -26 -30 5 -10 18 -18 28 -18 25 0 32 -21 15 -45
-20 -27 -17 -64 10 -110 18 -31 29 -40 52 -42 25 -1 25 0 4 4 -45 9 -43 21 3
24 39 4 44 2 34 -11 -6 -8 -1 -6 11 5 18 14 23 28 21 55 -2 21 4 46 14 60 21
31 22 72 1 116 -17 35 -25 39 -61 24z"/>
<path d="M4275 2180 c-16 -7 -17 -9 -3 -9 9 -1 20 4 23 9 7 11 7 11 -20 0z"/>
<path d="M4780 2135 c-7 -9 -21 -13 -31 -10 -32 10 -21 -12 11 -24 18 -6 28
-6 25 -1 -4 6 -2 10 2 10 5 0 9 9 10 20 2 24 -1 25 -17 5z"/>
<path d="M3310 2111 c0 -6 4 -13 10 -16 6 -3 7 1 4 9 -7 18 -14 21 -14 7z"/>
<path d="M3819 2099 c15 -17 26 -20 48 -14 27 6 27 7 9 21 -11 8 -33 14 -48
14 l-29 0 20 -21z"/>
<path d="M2585 2100 c3 -5 11 -10 16 -10 6 0 7 5 4 10 -3 6 -11 10 -16 10 -6
0 -7 -4 -4 -10z"/>
<path d="M3768 2103 c7 -3 16 -2 19 1 4 3 -2 6 -13 5 -11 0 -14 -3 -6 -6z"/>
<path d="M5260 2095 c0 -8 2 -15 4 -15 2 0 6 7 10 15 3 8 1 15 -4 15 -6 0 -10
-7 -10 -15z"/>
<path d="M2156 2075 c-11 -8 -15 -15 -9 -15 6 0 16 7 23 15 16 19 11 19 -14 0z"/>
<path d="M2695 2059 c-20 -18 -35 -40 -35 -53 1 -17 3 -15 15 11 7 17 24 37
37 44 22 11 22 11 7 -7 -9 -10 -21 -34 -28 -53 -10 -32 -9 -37 16 -63 15 -16
33 -26 41 -23 7 2 11 1 8 -4 -5 -7 46 -53 81 -74 14 -9 83 49 83 69 0 7 -5 36
-11 64 -9 41 -16 54 -37 63 -15 6 -37 22 -49 34 -33 34 -83 31 -128 -8z m87
-69 c-16 -37 -42 -55 -42 -28 0 10 48 68 56 68 1 0 -5 -18 -14 -40z"/>
<path d="M3790 2080 c0 -5 7 -10 16 -10 8 0 12 5 9 10 -3 6 -10 10 -16 10 -5
0 -9 -4 -9 -10z"/>
<path d="M2505 2070 c-3 -5 -1 -10 4 -10 6 0 11 5 11 10 0 6 -2 10 -4 10 -3 0
-8 -4 -11 -10z"/>
<path d="M3525 2055 c-29 -13 -28 -13 35 -14 59 0 63 1 46 14 -24 18 -42 18
-81 0z"/>
<path d="M4415 2025 c-49 -18 -82 -34 -72 -34 13 -1 17 -10 17 -39 0 -69 58
-97 133 -64 67 30 92 87 65 147 -15 33 -33 32 -143 -10z"/>
<path d="M2450 2011 c-19 -10 -35 -25 -35 -33 0 -9 -6 -22 -13 -31 -12 -14
-10 -15 17 -7 45 13 56 21 40 31 -11 7 -10 9 4 9 9 0 17 6 17 13 0 9 2 9 8 0
5 -8 11 -3 19 13 9 20 9 24 -6 24 -9 0 -32 -8 -51 -19z"/>
<path d="M5282 2000 c0 -19 2 -27 5 -17 2 9 2 25 0 35 -3 9 -5 1 -5 -18z"/>
<path d="M1804 2006 c4 -12 0 -23 -11 -32 -19 -14 -18 -15 35 -19 l34 -3 -29
32 c-15 17 -30 33 -32 36 -2 3 -1 -3 3 -14z"/>
<path d="M2220 2001 c-8 -5 -67 -21 -130 -36 -139 -33 -149 -36 -87 -31 42 3
48 1 53 -19 5 -21 7 -22 43 -9 46 15 94 6 99 -20 6 -30 -13 -40 -41 -21 -14 9
-44 17 -66 19 -35 3 -45 -1 -61 -22 -28 -35 -26 -87 5 -117 13 -14 30 -26 37
-26 7 -1 0 -4 -17 -8 -21 -5 -29 -12 -27 -24 2 -11 -2 -15 -13 -11 -11 4 -15
0 -15 -16 0 -11 -4 -19 -9 -15 -15 9 -34 -34 -27 -60 7 -27 61 -55 106 -55 46
0 90 27 105 64 14 33 10 76 -6 76 -5 0 -8 6 -6 13 1 6 -6 11 -15 11 -14 -1
-15 2 -5 17 7 11 18 19 25 19 20 0 92 39 92 50 0 6 -4 10 -10 10 -5 0 -10 9
-10 20 0 11 -7 20 -15 20 -21 0 -19 24 5 45 22 20 26 55 9 72 -7 7 -6 15 6 27
25 25 7 45 -25 27z m-146 -309 c2 -4 -4 -8 -14 -8 -10 0 -16 4 -14 8 3 4 9 8
14 8 5 0 11 -4 14 -8z m43 2 c-3 -3 -12 -4 -19 -1 -8 3 -5 6 6 6 11 1 17 -2
13 -5z m26 -31 c-7 -2 -19 -2 -25 0 -7 3 -2 5 12 5 14 0 19 -2 13 -5z m-90
-10 c-7 -2 -21 -2 -30 0 -10 3 -4 5 12 5 17 0 24 -2 18 -5z m-53 -44 c0 -6 15
-25 33 -41 30 -29 31 -30 7 -24 -29 9 -73 53 -65 67 8 13 25 11 25 -2z"/>
<path d="M5181 1936 c-14 -17 -5 -174 11 -193 16 -20 55 -15 72 9 19 26 20 67
5 123 -18 67 -60 95 -88 61z m60 -189 c-12 -12 -51 10 -51 28 0 12 5 11 30 -3
16 -9 25 -21 21 -25z"/>
<path d="M1913 1933 c9 -2 23 -2 30 0 6 3 -1 5 -18 5 -16 0 -22 -2 -12 -5z"/>
<path d="M5292 1920 c0 -14 2 -19 5 -12 2 6 2 18 0 25 -3 6 -5 1 -5 -13z"/>
<path d="M1745 1896 c11 -7 35 -13 52 -13 26 0 30 3 22 14 -6 7 -30 13 -52 13
-38 0 -40 -1 -22 -14z"/>
<path d="M2532 1898 c-5 -7 -19 -32 -30 -55 -14 -31 -17 -45 -8 -54 8 -9 7
-11 -6 -6 -21 8 -58 -36 -58 -68 0 -29 50 -72 94 -80 39 -8 100 15 115 43 9
17 18 48 38 130 7 30 -11 64 -47 85 -33 20 -83 22 -98 5z m99 -18 l24 -20 -33
11 c-18 6 -44 8 -57 5 -18 -5 -25 -2 -25 9 0 23 63 19 91 -5z m-36 -74 c19 -8
35 -17 35 -19 0 -5 -93 4 -99 9 -6 5 10 24 20 24 5 0 25 -7 44 -14z"/>
<path d="M1860 1885 c0 -8 5 -15 10 -15 6 0 10 7 10 15 0 8 -4 15 -10 15 -5 0
-10 -7 -10 -15z"/>
<path d="M3965 1891 c-3 -5 -1 -12 5 -16 5 -3 10 1 10 9 0 18 -6 21 -15 7z"/>
<path d="M1495 1880 c-4 -6 -10 -8 -15 -5 -4 3 -11 -2 -14 -10 -4 -13 -2 -13
14 -5 18 10 36 30 26 30 -3 0 -8 -5 -11 -10z"/>
<path d="M3930 1883 c0 -5 4 -15 10 -23 11 -18 25 -7 17 15 -6 15 -27 21 -27
8z"/>
<path d="M5302 1865 c0 -16 2 -22 5 -12 2 9 2 23 0 30 -3 6 -5 -1 -5 -18z"/>
<path d="M1728 1873 c44 -9 17 -27 -37 -24 -44 2 -57 -1 -77 -20 -13 -12 -24
-30 -24 -40 0 -24 47 -59 80 -59 39 0 80 35 80 68 0 15 1 38 2 52 2 20 -2 25
-22 27 -23 1 -23 1 -2 -4z"/>
<path d="M1151 1851 c-8 -5 -41 -13 -73 -16 -40 -5 -58 -11 -58 -21 0 -21 40
-17 96 10 35 17 51 20 56 12 5 -7 8 -5 8 7 0 19 -8 21 -29 8z"/>
<path d="M1856 1843 c-6 -14 -5 -15 5 -6 7 7 10 15 7 18 -3 3 -9 -2 -12 -12z"/>
<path d="M3747 1834 c-49 -13 -103 -32 -120 -41 -18 -9 -43 -19 -57 -24 -23
-7 -23 -7 -3 -8 12 -1 33 3 47 9 24 9 26 7 26 -16 0 -27 29 -84 42 -84 4 0 8
-6 8 -14 0 -24 30 -46 62 -46 22 0 41 11 69 39 32 32 39 46 39 77 0 22 -7 48
-16 59 -9 12 -12 30 -8 47 3 16 4 28 2 27 -2 0 -43 -12 -91 -25z m46 -48 c-10
-15 -70 -35 -91 -29 -12 3 -22 13 -22 22 0 14 10 17 59 17 32 -1 57 -5 54 -10z
m37 -115 c0 -14 -64 -51 -89 -51 -12 0 -21 6 -21 15 0 10 10 15 28 15 15 1 38
7 52 15 30 17 30 17 30 6z"/>
<path d="M5070 1847 c-22 -17 -10 -91 19 -120 l22 -22 -10 28 c-6 16 -12 51
-13 78 -1 27 -2 49 -3 49 0 0 -7 -6 -15 -13z"/>
<path d="M4789 1787 c-37 -24 -50 -67 -29 -92 7 -8 10 -22 6 -30 -3 -9 -2 -13
4 -10 6 3 14 -5 20 -19 9 -24 14 -26 68 -26 57 0 59 1 80 39 12 21 22 51 22
65 0 34 -24 82 -45 90 -35 13 -93 6 -126 -17z m40 -10 c-15 -12 -32 -33 -39
-46 -8 -15 -15 -20 -22 -13 -14 14 6 48 40 66 40 22 51 18 21 -7z"/>
<path d="M2971 1774 c-26 -33 -26 -36 3 -63 21 -20 31 -22 69 -17 24 4 56 2
71 -3 33 -13 50 -54 35 -83 -19 -36 13 -15 49 31 35 47 45 111 17 111 -8 0
-15 -5 -15 -10 0 -7 -6 -7 -19 0 -11 5 -31 10 -45 10 -14 0 -28 5 -32 11 -6
11 -59 8 -113 -7 -23 -7 -23 -7 -6 20 22 34 13 34 -14 0z"/>
<path d="M2880 1766 c14 -18 13 -18 -9 -11 -30 9 -24 -15 7 -31 12 -6 21 -13
19 -15 -1 -2 3 1 9 8 6 7 14 10 17 6 4 -3 7 -2 6 3 0 5 -14 20 -32 34 -21 16
-27 18 -17 6z"/>
<path d="M5100 1774 c0 -3 11 -22 25 -44 40 -64 95 -83 70 -24 -8 19 -28 38
-54 51 -22 11 -41 19 -41 17z"/>
<path d="M885 1760 c-4 -6 1 -7 12 -4 12 4 10 0 -7 -15 -14 -11 -28 -21 -33
-21 -7 0 -27 -42 -33 -69 -1 -8 -6 -17 -11 -20 -4 -3 -9 -20 -10 -38 -2 -27 1
-33 29 -42 51 -18 64 -14 81 27 22 51 32 159 16 178 -13 16 -35 18 -44 4z
m-13 -100 c-25 -24 -33 -25 -26 -6 3 8 13 17 22 19 10 3 19 5 21 6 3 0 -5 -8
-17 -19z"/>
<path d="M3481 1754 c0 -11 3 -14 6 -6 3 7 2 16 -1 19 -3 4 -6 -2 -5 -13z"/>
<path d="M1193 1748 c1 -7 -11 -15 -28 -18 l-30 -6 40 -8 c22 -4 43 -13 47
-19 5 -8 8 -6 8 6 0 10 -7 20 -16 24 -11 4 -12 8 -4 13 8 5 7 9 -4 13 -9 4
-15 1 -13 -5z"/>
<path d="M3348 1752 c-29 -6 -21 -22 33 -73 55 -53 66 -60 47 -29 -11 17 -10
22 0 29 11 7 11 9 -2 14 -9 4 -16 2 -16 -4 0 -6 -4 -7 -10 -4 -5 3 -10 21 -10
39 0 32 -6 36 -42 28z"/>
<path d="M4097 1734 c-6 -6 39 -143 52 -157 4 -4 28 -4 54 -1 46 7 47 8 47 41
0 49 -26 92 -65 109 -36 15 -77 18 -88 8z"/>
<path d="M1327 1715 c-5 -11 0 -15 16 -15 12 0 18 4 12 8 -5 4 -13 11 -16 15
-4 4 -9 1 -12 -8z"/>
<path d="M1365 1720 c4 -6 11 -8 16 -5 14 9 11 15 -7 15 -8 0 -12 -5 -9 -10z"/>
<path d="M1049 1693 c-26 -22 -60 -90 -73 -145 -7 -32 9 -39 19 -8 6 17 15 20
75 20 l69 0 -6 -35 c-6 -35 -5 -35 31 -35 35 0 36 1 36 36 0 41 17 42 37 3 8
-16 13 -18 13 -8 0 9 -10 29 -22 44 -16 21 -21 39 -19 75 1 27 -3 51 -9 55 -5
3 -10 1 -10 -6 0 -7 -6 -5 -14 6 -8 11 -19 16 -30 12 -9 -4 -16 -2 -16 3 0 17
-53 6 -81 -17z"/>
<path d="M1540 1703 c0 -10 5 -24 12 -31 7 -7 8 -12 4 -12 -5 0 -3 -7 4 -15 7
-8 25 -15 41 -15 38 0 112 39 105 56 -3 8 0 11 10 7 7 -3 14 0 14 6 0 7 -22
11 -57 11 -32 0 -75 3 -95 6 -33 6 -38 4 -38 -13z m45 -3 c3 -6 -1 -7 -9 -4
-18 7 -21 14 -7 14 6 0 13 -4 16 -10z m42 -6 c-3 -3 -12 -4 -19 -1 -8 3 -5 6
6 6 11 1 17 -2 13 -5z m48 -4 c3 -6 -1 -7 -9 -4 -18 7 -21 14 -7 14 6 0 13 -4
16 -10z m-78 -26 c-3 -3 -12 -4 -19 -1 -8 3 -5 6 6 6 11 1 17 -2 13 -5z"/>
<path d="M2855 1697 c2 -30 20 -62 29 -49 3 6 2 13 -3 17 -6 3 -8 12 -5 19 3
7 -1 18 -8 24 -11 8 -13 6 -13 -11z"/>
<path d="M4066 1711 c-4 -5 -2 -18 3 -28 5 -10 17 -39 26 -65 9 -27 21 -48 26
-48 13 0 11 13 -12 77 -24 65 -34 80 -43 64z"/>
<path d="M4668 1682 c-37 -41 -48 -43 -48 -10 0 11 -5 16 -10 13 -6 -4 -8 -10
-5 -15 3 -5 1 -11 -5 -15 -5 -3 -10 -15 -10 -26 0 -10 -4 -19 -9 -19 -4 0 -6
12 -4 28 4 26 4 26 -11 8 -30 -37 -20 -46 46 -46 34 0 58 3 55 7 -9 9 13 34
24 27 5 -3 6 2 2 11 -3 10 0 20 6 25 7 4 11 18 9 30 -3 22 -5 21 -40 -18z"/>
<path d="M1850 1696 c0 -10 28 -13 41 -5 10 6 7 9 -13 9 -16 0 -28 -2 -28 -4z"/>
<path d="M1345 1643 c14 -83 17 -94 36 -103 27 -15 91 20 78 42 -5 9 -21 19
-36 23 -36 9 -63 33 -63 57 0 10 -5 18 -10 18 -7 0 -9 -14 -5 -37z"/>
<path d="M1842 1642 c0 -28 2 -32 9 -19 16 27 26 20 27 -20 1 -25 10 -45 29
-65 36 -37 43 -35 43 11 0 36 -31 93 -48 89 -4 -1 -18 4 -32 11 l-25 11 27 -3
c16 -2 25 0 22 7 -2 6 -15 12 -28 12 -21 2 -24 -3 -24 -34z"/>
<path d="M4055 1660 c4 -14 9 -40 12 -57 3 -18 11 -33 18 -33 11 0 11 9 -2 48
-17 50 -42 87 -28 42z"/>
<path d="M3995 1625 c-17 -46 -19 -48 -26 -25 -4 14 -7 19 -8 13 -1 -18 -21
-16 -21 2 0 16 -20 16 -32 0 -4 -5 -8 -21 -8 -34 0 -21 3 -23 31 -17 17 3 42
6 56 6 17 0 24 5 22 18 -1 9 1 25 5 34 4 9 6 25 4 35 -2 11 -10 0 -23 -32z"/>
<path d="M4350 1645 c0 -17 26 -55 37 -55 11 0 9 8 -7 30 -20 28 -30 36 -30
25z"/>
<path d="M3466 1619 c3 -5 19 -13 37 -18 l32 -9 -39 -1 c-30 -1 -37 -4 -29
-12 20 -20 88 -22 107 -4 21 21 21 36 -1 30 -10 -3 -4 1 12 10 29 14 28 15
-47 13 -43 0 -75 -5 -72 -9z"/>
<path d="M3047 1553 c4 -10 2 -14 -5 -9 -19 12 -23 -13 -7 -45 9 -17 15 -33
12 -35 -2 -2 -12 14 -23 36 -22 46 -33 46 -55 2 l-17 -33 -21 28 c-14 17 -18
20 -12 7 5 -11 17 -26 25 -33 9 -8 13 -18 10 -23 -6 -10 115 -2 125 8 2 2 -2
16 -9 32 -8 15 -16 31 -19 36 -2 5 1 6 6 3 6 -4 16 -20 23 -37 11 -26 30 -41
30 -24 0 13 -54 104 -61 104 -5 0 -5 -7 -2 -17z"/>
<path d="M1654 1526 c-28 -12 -84 -72 -84 -89 0 -18 87 -5 127 18 23 14 43 27
43 28 0 2 -12 3 -27 2 -28 0 -30 5 -18 38 8 20 1 21 -41 3z"/>
<path d="M2236 1468 c-17 -72 -16 -105 4 -93 11 7 23 100 18 140 -2 23 -7 12
-22 -47z"/>
<path d="M740 1471 c8 -5 31 -11 50 -15 24 -4 28 -3 15 2 -31 14 -83 24 -65
13z"/>
<path d="M831 1446 c12 -10 60 -16 54 -6 -3 5 -18 10 -32 10 -15 0 -24 -2 -22
-4z"/>
<path d="M2490 1433 c-3 -6 -25 -21 -50 -31 l-45 -20 45 5 c52 6 63 14 58 39
-2 11 -6 14 -8 7z"/>
<path d="M1756 1422 c-2 -4 14 -6 36 -4 22 3 45 -1 51 -7 6 -6 18 -11 27 -11
9 1 6 6 -10 15 -27 15 -96 20 -104 7z"/>
<path d="M1348 1363 c7 -3 16 -2 19 1 4 3 -2 6 -13 5 -11 0 -14 -3 -6 -6z"/>
</g>
</svg>
